<svg width="372" height="372" xmlns="http://www.w3.org/2000/svg">

 <g>
  <title>background</title>
  <rect fill="none" id="canvas_background" height="374" width="374" y="-1" x="-1"/>
 </g>
 <g>
  <title>Layer 1</title>
  <g id="svgg">
   <path fill-rule="evenodd" fill="#000000" d="m197.745,6.801c-2.43,5.333 -0.476,11.102 2.947,8.704c2.534,-1.774 2.258,-10.169 -0.347,-10.542c-1.135,-0.162 -1.952,0.415 -2.6,1.838m57.516,19.339c-3.982,7.353 -4.621,9.643 -3.109,11.155c1.926,1.926 3.531,0.557 6.678,-5.698c5.064,-10.064 1.707,-15.198 -3.569,-5.457m-86.018,0.731c-1.961,1.962 -0.329,10.729 1.998,10.729c1.424,0 3.159,-2.647 3.159,-4.82c0,-4.913 -2.867,-8.199 -5.157,-5.909m-88.954,11.129c-0.769,2.005 10.263,18.873 13.041,19.939c1.485,0.57 3.47,-0.837 3.47,-2.46c0,-5.342 -15.053,-21.278 -16.511,-17.479m201.745,2.27c-2.344,4 -2.459,4.781 -0.897,6.078c2.089,1.734 7.663,-4.039 7.663,-7.937c0,-3.313 -4.452,-2.09 -6.766,1.859m-138.348,-1.405c-0.569,1.483 0.037,6.223 1.117,8.735c0.379,0.88 1.277,3.94 1.996,6.8c6.395,25.443 7.278,28 9.671,28c3.297,0 3.09,-2.302 -1.807,-20c-0.67,-2.42 -1.516,-5.66 -1.882,-7.2c-3.733,-15.737 -7.043,-21.682 -9.095,-16.335m77.273,0.086c-3.132,6.059 -2.489,10.696 1.315,9.489c1.701,-0.54 3.61,-5.596 3.202,-8.483c-0.345,-2.447 -3.418,-3.131 -4.517,-1.006m-104.392,1.549c-2.132,2.131 1.199,9.364 4.492,9.753c1.951,0.231 2.136,0.018 2.083,-2.4c-0.106,-4.801 -4.364,-9.564 -6.575,-7.353m78.633,1.414c0,2.164 1.75,3.216 3.103,1.863c1.668,-1.668 1.052,-3.777 -1.103,-3.777c-1.576,0 -2,0.406 -2,1.914m50.704,5.648c-0.61,1.591 0.294,2.838 2.058,2.838c1.572,0 2.421,-1.373 1.853,-3c-0.481,-1.38 -3.365,-1.26 -3.911,0.162m-51.846,7.294c-2.819,2.819 -2.399,9.225 0.644,9.811c2.932,0.565 4.839,-7.412 2.363,-9.887c-1.459,-1.46 -1.471,-1.459 -3.007,0.076m-127.258,3.816c-11.29,5.146 -12.507,21.49 -2.131,28.6c4.096,2.806 13.766,2.806 17.862,0c15.997,-10.961 1.88,-36.629 -15.731,-28.6m148.941,0.05c-0.237,0.617 0.062,1.787 0.665,2.6c1.351,1.822 4.172,-0.263 3.329,-2.46c-0.601,-1.564 -3.41,-1.662 -3.994,-0.14m72.659,-0.054c-15.734,7.146 -10.569,30.532 6.743,30.532c21.314,0 22.241,-30.46 0.955,-31.391c-3.245,-0.142 -6.228,0.191 -7.698,0.859m-163.421,1.473c-0.687,0.687 -0.704,1.227 -0.062,2c1.647,1.984 5.098,0.673 4.225,-1.605c-0.595,-1.549 -2.8,-1.758 -4.163,-0.395m114.438,0.059c-0.428,0.55 -1.642,2.98 -2.698,5.4c-1.055,2.42 -2.729,5.949 -3.719,7.842c-0.99,1.894 -1.8,4.709 -1.8,6.256c0,2.46 0.226,2.781 1.8,2.558c2.493,-0.354 12.384,-20.188 10.938,-21.931c-1.157,-1.394 -3.483,-1.458 -4.521,-0.125m28.758,0.4c-0.881,0.77 -5.861,7.52 -11.068,15c-5.206,7.48 -9.691,13.78 -9.966,14c-1.186,0.946 -2.341,4.078 -2.341,6.347c0,3.69 2.617,3.25 5.635,-0.947c17.79,-24.744 21.522,-30.494 21.544,-33.2c0.024,-2.965 -1.305,-3.384 -3.804,-1.2m-96.462,1.393c-0.516,1.345 0.107,16.531 0.804,19.607c0.25,1.1 0.59,3.776 0.757,5.946c0.29,3.78 1.194,5.215 3.298,5.242c1.704,0.021 2.804,-3.203 2.278,-6.677c-0.275,-1.821 -0.78,-7.271 -1.121,-12.111c-0.34,-4.84 -1.04,-9.79 -1.554,-11c-1.017,-2.392 -3.698,-2.997 -4.462,-1.007m-91.906,1.203c10.407,6.344 5.958,22.398 -6.207,22.398c-6.826,0 -11.994,-5.168 -11.994,-11.994c0,-6.826 5.168,-11.994 11.994,-11.994c2.184,0 4.625,0.625 6.207,1.59m221.278,-0.29c3.481,1.66 6.115,6.267 6.115,10.694c0,12.199 -16.041,16.643 -22.404,6.207c-6.277,-10.295 5.191,-22.193 16.289,-16.901m-200.254,3.057c-2.024,2.438 0.398,4.614 3.169,2.848c0.911,-0.581 0.993,-1.097 0.343,-2.141c-1.189,-1.907 -2.326,-2.136 -3.512,-0.707m-29.098,5.77c-1.013,1.014 -0.528,3.298 0.809,3.811c0.738,0.283 1.831,0.025 2.429,-0.573c0.598,-0.598 0.856,-1.691 0.573,-2.429c-0.513,-1.337 -2.797,-1.822 -3.811,-0.809m221.523,0.809c-0.831,2.166 1.605,4.14 3.173,2.571c1.502,-1.501 0.745,-3.913 -1.229,-3.913c-0.786,0 -1.661,0.604 -1.944,1.342m-82.544,6.199c-0.728,1.897 0.302,3.812 1.886,3.507c0.885,-0.17 1.402,-0.999 1.402,-2.248c0,-2.281 -2.525,-3.247 -3.288,-1.259m-173.379,1.792c-2.533,2.534 18.114,19.467 23.736,19.467c5.802,0 3.428,-3.015 -9.47,-12.028c-10.792,-7.541 -13.008,-8.697 -14.266,-7.439m154.023,1.753c-1.79,1.136 -0.943,10.025 0.991,10.393c2.159,0.411 3.653,-1.991 3.653,-5.872c0,-4.412 -1.9,-6.261 -4.644,-4.521m125.51,7.191c-1.436,2.683 1.952,4.511 3.934,2.123c0.795,-0.957 0.795,-1.443 0,-2.4c-1.349,-1.625 -2.978,-1.51 -3.934,0.277m-176.666,1.453c-2.986,1.205 1.58,10.552 5.2,10.645c1.585,0.04 1.193,-5.648 -0.591,-8.575c-1.529,-2.507 -2.474,-2.932 -4.609,-2.07m17.726,1.376c-0.687,1.788 0.298,2.894 2.577,2.894c1.625,0 1.96,-0.343 1.753,-1.8c-0.305,-2.145 -3.607,-2.979 -4.33,-1.094m48.739,0.156c-0.838,2.184 1.835,4.18 3.444,2.571c1.636,-1.635 0.885,-3.833 -1.309,-3.833c-0.908,0 -1.868,0.568 -2.135,1.262m67.114,-0.321c-1.189,1.189 0.177,3.059 2.233,3.059c1.494,0 2.705,-2.039 1.943,-3.272c-0.635,-1.028 -3.059,-0.904 -4.176,0.213m-153.189,2.975c-0.867,3.317 6.658,14.084 9.844,14.084c2.93,0 2.861,-2.575 -0.194,-7.215c-5.262,-7.992 -8.714,-10.449 -9.65,-6.869m184.813,1.884c-0.65,1.769 0.279,3 2.264,3c1.993,0 2.285,-0.552 1.447,-2.735c-0.577,-1.504 -3.186,-1.69 -3.711,-0.265m-82.92,0.532c-1.306,0.827 -0.656,3.098 1.078,3.764c1.772,0.68 3.641,-1.492 2.712,-3.152c-0.831,-1.485 -2.09,-1.689 -3.79,-0.612m-121.15,3.801c-1.52,1.521 0.144,4.239 6.822,11.141c7.974,8.243 11.154,9.626 11.683,5.081c0.462,-3.964 -16.177,-18.55 -18.505,-16.222m-29.572,3.173c-1.445,1.444 -0.561,4.405 1.239,4.15c1.315,-0.187 1.8,-0.791 1.8,-2.245c0,-1.931 -1.852,-3.092 -3.039,-1.905m216.639,3.68c-8.978,6.767 -7.466,11.683 1.741,5.661c7.202,-4.71 8.817,-6.383 7.772,-8.049c-1.559,-2.487 -3.788,-1.927 -9.513,2.388m-51.4,-2.856c-1.425,0.575 -1.239,3.429 0.262,4.005c1.973,0.757 4.067,-1.733 2.771,-3.295c-1.077,-1.297 -1.394,-1.372 -3.033,-0.71m16.943,5.438c-5.233,5.259 -5.513,5.737 -4.657,7.967c1.182,3.08 13.914,-5.887 13.914,-9.8c0,-4.856 -3.239,-4.214 -9.257,1.833m-171.263,2.456c-0.776,2.022 0.427,3.503 6.386,7.865c5.432,3.977 9.334,4.671 9.334,1.661c0,-4.094 -14.445,-12.847 -15.72,-9.526m-48.581,0.808c-0.843,2.194 4.462,6.768 7.849,6.768c1.047,0 2.714,-2.628 2.319,-3.657c-1.134,-2.957 -9.272,-5.447 -10.168,-3.111m280.011,7.009c-2.526,2.021 -2.658,4.755 -0.252,5.218c1.751,0.337 6.998,-2.049 8.253,-3.754c2.572,-3.494 -3.969,-4.691 -8.001,-1.464m-44.11,0.183c-4.503,2.229 -10.397,7.212 -10.656,9.008c-0.602,4.171 5.624,2.402 12.619,-3.586c3.365,-2.88 4.147,-5.325 1.972,-6.16c-1.538,-0.59 -1.074,-0.678 -3.935,0.738m-203.867,6.509c-0.293,0.294 -0.533,1.374 -0.533,2.4c0,2.163 2.938,2.682 3.715,0.657c0.751,-1.957 -1.816,-4.423 -3.182,-3.057m230.667,1.249c-7.034,3.552 -3.444,7.923 3.696,4.501c1.774,-0.851 2.304,-1.651 2.304,-3.483c0,-3.074 -1.444,-3.319 -6,-1.018m-191.116,0.117c-1.333,1.606 -0.196,3.831 1.81,3.543c1.964,-0.281 2.763,-2.934 1.185,-3.934c-1.483,-0.94 -1.94,-0.88 -2.995,0.391m-27.284,5.701c-1.55,1.868 0.09,3.217 9.291,7.644c8.139,3.916 13.939,5.151 13.884,2.956c-0.107,-4.204 -20.675,-13.612 -23.175,-10.6m270,2.705c-7.229,2.059 -7.6,2.273 -7.6,4.384c0,2.721 1.788,3.113 7.473,1.641c8.19,-2.122 10.28,-3.234 9.985,-5.313c-0.334,-2.352 -3.339,-2.569 -9.858,-0.712m-323.936,2.908c-2.092,1.583 -0.197,3.731 4.548,5.156c1.863,0.559 4.288,1.293 5.388,1.631c7.067,2.171 8.707,2.502 11.209,2.265c5.382,-0.511 3.834,-4.262 -2.409,-5.835c-1.1,-0.278 -5.376,-1.388 -9.503,-2.467c-4.126,-1.08 -7.546,-1.952 -7.6,-1.938c-0.053,0.014 -0.788,0.549 -1.633,1.188m243.536,3.931c0,1.675 0.381,2.056 2.056,2.056c2.735,0 2.506,-3.463 -0.256,-3.856c-1.466,-0.208 -1.8,0.126 -1.8,1.8m60.049,-0.374c-1.562,0.965 -0.641,3.6 1.359,3.886c1.44,0.205 1.792,-0.132 1.792,-1.715c0,-2.123 -1.527,-3.175 -3.151,-2.171m-14.159,4.428c-0.276,0.72 -0.133,1.679 0.319,2.131c1.304,1.304 3.791,0.425 3.791,-1.34c0,-2.035 -3.383,-2.686 -4.11,-0.791m-249.069,3.176c-2.397,2.889 11.939,8.988 16.009,6.81c3.534,-1.891 1.576,-4.138 -5.276,-6.052c-7.49,-2.094 -9.506,-2.236 -10.733,-0.758m225.979,1.379c-4.629,1.662 -5.758,3.864 -2.795,5.45c1.841,0.985 7.612,-0.382 9.537,-2.259c2.763,-2.695 -1.933,-4.917 -6.742,-3.191m-199.288,5.788c-0.743,1.935 0.255,3.659 2.116,3.659c1.358,0 1.63,-0.419 1.425,-2.193c-0.284,-2.46 -2.765,-3.488 -3.541,-1.466m182.083,0.065c-0.885,1.066 -0.851,1.481 0.212,2.544c1.715,1.715 3.977,0.762 3.649,-1.538c-0.312,-2.191 -2.421,-2.741 -3.861,-1.006m82.805,7.765c-4.778,1.68 -5.468,3.092 -2.472,5.056c2.641,1.73 9.538,-0.088 9.915,-2.613c0.192,-1.28 -3.997,-4.107 -4.962,-3.351c-0.045,0.035 -1.161,0.443 -2.481,0.908m-337,1.959c-1.32,0.532 -1.266,1.718 0.143,3.127c1.459,1.459 2.411,1.444 3.657,-0.057c1.748,-2.106 -0.896,-4.242 -3.8,-3.07m13.933,0.803c-2.403,2.404 0.812,5.067 6.116,5.067c4.653,0 6.138,-1.604 3.641,-3.931c-1.766,-1.645 -8.467,-2.425 -9.757,-1.136m298.662,0.673c-0.885,1.066 -0.851,1.481 0.212,2.544c1.715,1.715 3.977,0.762 3.649,-1.538c-0.312,-2.191 -2.421,-2.741 -3.861,-1.006m-28.395,1.194c-0.88,0.378 -3.943,0.713 -6.808,0.744c-4.371,0.047 -5.374,0.323 -6.245,1.719c-1.931,3.091 0.044,4.113 6.998,3.621c3.33,-0.236 9.655,-0.657 14.055,-0.935c8.614,-0.544 10,-1.105 10,-4.047c0,-2.028 -13.87,-2.877 -18,-1.102m-214.8,3.6c-0.795,0.957 -0.795,1.443 0,2.4c1.992,2.4 4.544,0.976 3.598,-2.007c-0.6,-1.889 -2.21,-2.065 -3.598,-0.393m187.733,-0.667c-1.015,1.015 -0.528,3.519 0.783,4.022c1.555,0.597 3.583,-1.767 2.943,-3.433c-0.444,-1.159 -2.785,-1.529 -3.726,-0.589m-204.133,17.309c-1.32,0.427 -2.85,0.896 -3.4,1.042c-1.715,0.456 -1.117,3.497 0.865,4.4c2.234,1.018 8.142,-0.305 8.779,-1.965c0.97,-2.529 -2.756,-4.604 -6.244,-3.477m16.058,0.295c-0.351,0.915 -0.043,1.788 0.866,2.453c1.924,1.406 3.076,0.861 3.076,-1.457c0,-2.403 -3.101,-3.187 -3.942,-0.996m188.075,-0.804c-1.025,1.025 -0.522,3.3 0.846,3.825c1.614,0.619 3.533,-1.536 2.88,-3.236c-0.444,-1.159 -2.785,-1.529 -3.726,-0.589m28.78,2.068c-4.571,3.397 1.84,5.981 15.189,6.122c13.143,0.139 12.529,-4.663 -0.729,-5.7c-4.055,-0.317 -8.633,-0.79 -10.173,-1.052c-1.802,-0.306 -3.33,-0.082 -4.287,0.63m-257.953,1.559c-2.302,2.302 0.145,4.64 4.859,4.64c3.861,0 6.757,-2.144 5.903,-4.37c-0.585,-1.524 -9.29,-1.742 -10.762,-0.27m-14.027,1.173c-1.342,1.343 -0.473,3.467 1.42,3.467c2.259,0 3.057,-0.921 2.364,-2.728c-0.491,-1.28 -2.793,-1.73 -3.784,-0.739m306.231,0.612c-1.253,0.931 -1.388,1.449 -0.677,2.608c1.12,1.826 2.683,1.852 3.812,0.062c1.394,-2.21 -1.005,-4.252 -3.135,-2.67m-333.001,1.448c-4.576,2.203 -1.937,4.189 5.893,4.435c7.737,0.243 12.102,-1.443 11.022,-4.257c-0.552,-1.44 -14.001,-1.581 -16.915,-0.178m346.225,0.222c-1.844,2.222 1.141,4.385 6.05,4.385c3.994,0 5.162,-0.71 5.162,-3.137c0,-2.254 -9.5,-3.311 -11.212,-1.248m-261.299,9.585c-0.633,1.652 0.226,3.6 1.588,3.6c0.62,0 1.575,-0.54 2.123,-1.2c1.153,-1.389 -0.151,-3.6 -2.123,-3.6c-0.62,0 -1.334,0.54 -1.588,1.2m182.106,0.006c-0.885,1.066 -0.851,1.481 0.212,2.544c1.715,1.715 3.977,0.762 3.649,-1.538c-0.312,-2.191 -2.421,-2.741 -3.861,-1.006m-206.395,5.141c-1.994,0.657 -7.046,2.097 -11.6,3.307c-1.32,0.351 -4.02,1.077 -6,1.614c-4.552,1.235 -6.89,3.556 -5.243,5.203c1.296,1.296 4.334,1.465 7.005,0.389c1.011,-0.407 6.158,-1.891 11.438,-3.297c11.606,-3.092 12.571,-3.55 12.249,-5.817c-0.277,-1.945 -4.114,-2.629 -7.849,-1.399m226.689,0.453c-0.633,1.652 0.226,3.6 1.588,3.6c1.972,0 3.276,-2.211 2.123,-3.6c-0.548,-0.66 -1.503,-1.2 -2.123,-1.2c-0.62,0 -1.334,0.54 -1.588,1.2m13.664,3.154c-3.152,2.342 3.867,6.224 13.44,7.434c5.093,0.644 5.217,-4.109 0.146,-5.587c-11.491,-3.348 -11.555,-3.356 -13.586,-1.847m-213.553,7.221c-5.943,3.462 -3.559,7.692 2.735,4.854c3.664,-1.652 5.364,-4.063 4.013,-5.692c-1.296,-1.561 -2.991,-1.351 -6.748,0.838m174,-0.006c0,2.423 2.531,4.897 5.647,5.52c5.625,1.125 6.422,-2.757 1.153,-5.621c-4.495,-2.443 -6.8,-2.408 -6.8,0.101m-237.024,0.661c-0.634,1.653 0.604,3.168 2.32,2.838c2.125,-0.41 1.969,-3.402 -0.194,-3.71c-0.934,-0.134 -1.891,0.259 -2.126,0.872m-17.539,3.088c-2.195,0.802 -3.551,3.203 -2.641,4.675c1.062,1.719 9.5,0.073 10.299,-2.009c1.255,-3.268 -2.469,-4.565 -7.658,-2.666m334.296,-0.385c-2.157,2.158 0.817,4.844 6.179,5.579c3.77,0.517 4.922,-0.284 4.107,-2.852c-0.744,-2.346 -8.588,-4.425 -10.286,-2.727m-61.048,5.477c-0.631,1.646 0.705,3.072 4.467,4.769c3.7,1.668 5.65,1.2 5.643,-1.354c-0.01,-3.442 -8.941,-6.459 -10.11,-3.415m-185.896,7.06c-6.336,4.268 -7.478,5.559 -6.801,7.692c0.854,2.69 3.647,1.928 9.619,-2.627c9.487,-7.234 7.011,-11.685 -2.818,-5.065m158.676,-2.208c-0.757,1.973 1.733,4.067 3.295,2.771c1.596,-1.325 1.585,-2.929 -0.025,-3.547c-1.989,-0.763 -2.748,-0.583 -3.27,0.776m-207.265,5.685c-9.955,4.986 -7.43,9.638 2.719,5.009c6.331,-2.888 8.281,-4.414 8.281,-6.48c0,-2.395 -4.478,-1.796 -11,1.471m266.485,3.864c-0.297,0.774 -0.188,1.963 0.241,2.644c0.828,1.312 1.046,1.443 6.674,4.018c1.98,0.905 6.786,3.104 10.679,4.887c7.513,3.438 10.679,4 11.436,2.03c0.692,-1.804 -0.601,-2.923 -7.059,-6.108c-18.199,-8.974 -21.025,-9.935 -21.971,-7.471m-41.89,2.395c-0.885,1.066 -0.851,1.481 0.212,2.544c1.715,1.715 3.977,0.762 3.649,-1.538c-0.312,-2.191 -2.421,-2.741 -3.861,-1.006m-166.027,4.737c-6.047,6.018 -6.689,9.257 -1.833,9.257c3.913,0 12.88,-12.732 9.8,-13.914c-2.23,-0.856 -2.708,-0.576 -7.967,4.657m138.864,-3.981c-2.138,2.575 12.174,18.459 16.127,17.899c4.156,-0.589 2.822,-3.587 -5.138,-11.548c-7.543,-7.542 -9.204,-8.503 -10.989,-6.351m-221.632,4.359c-6.83,3.515 -9.005,7.279 -4.207,7.279c5.584,0 15.77,-6.835 13.772,-9.242c-1.443,-1.739 -2.99,-1.422 -9.565,1.963m55.321,-1.612c-1.581,1.001 -0.787,3.691 1.09,3.691c1.147,0 1.589,-0.538 1.589,-1.933c0,-2.134 -1.024,-2.806 -2.679,-1.758m44.829,7.891c-3.052,2.627 -12.217,16.542 -11.981,18.191c0.305,2.125 3.406,2.537 4.963,0.66c3.228,-3.892 9.584,-12.932 10.671,-15.178c2.105,-4.347 -0.19,-6.653 -3.653,-3.673m108.121,-0.152c-1.096,2.856 7.045,14.352 10.163,14.352c3.577,0 2.93,-3.322 -1.87,-9.6c-4.38,-5.728 -7.281,-7.39 -8.293,-4.752m-167.584,1.512c-4.313,2.931 -4.754,6.84 -0.771,6.84c3.851,0 9.032,-7.158 6.019,-8.314c-1.88,-0.722 -2.114,-0.656 -5.248,1.474m27.692,7.06c-4.218,2.36 -6.745,7.518 -4.396,8.97c2.058,1.272 8.017,-3.815 8.017,-6.844c0,-2.51 -1.432,-3.351 -3.621,-2.126m41.675,8.244c-5.237,10.893 -5.594,15.244 -1.109,13.523c1.648,-0.632 9.455,-17.424 9.455,-20.338c0,-6.096 -3.521,-3.221 -8.346,6.815m83.546,-7.838c0,0.841 0.505,2.573 1.123,3.851c0.618,1.278 1.86,3.974 2.761,5.992c3.701,8.295 8.464,6.907 5.533,-1.612c-2.168,-6.303 -4.312,-9.243 -6.932,-9.508c-2,-0.201 -2.485,0.048 -2.485,1.277m-63.628,5.005c-2.325,2.57 -2.157,9.086 0.245,9.427c3.008,0.427 5.607,-7.714 3.223,-10.098c-1.308,-1.308 -1.756,-1.221 -3.468,0.671m49.236,-0.441c-1.329,1.601 -0.443,3.61 1.592,3.61c0.908,0 1.859,-0.545 2.115,-1.21c0.459,-1.198 -0.95,-3.59 -2.115,-3.59c-0.332,0 -1.048,0.535 -1.592,1.19m-33.273,2.915c-0.307,0.497 -0.669,2.207 -0.803,3.8c-0.134,1.592 -0.486,4.886 -0.782,7.319c-0.427,3.513 -0.279,4.639 0.718,5.466c2.406,1.997 4.287,0.413 4.882,-4.112c0.302,-2.298 0.741,-5.488 0.975,-7.089c0.684,-4.674 -2.983,-8.631 -4.99,-5.384m16.998,-0.372c-0.94,0.941 -0.57,3.282 0.589,3.726c1.7,0.653 3.855,-1.266 3.236,-2.88c-0.525,-1.368 -2.8,-1.871 -3.825,-0.846m-124.133,3.735c-15.665,7.115 -10.43,30.932 6.8,30.932c16.358,0 22.016,-19.853 8.528,-29.924c-2.744,-2.048 -11.736,-2.64 -15.328,-1.008m185.676,3.423c-0.291,0.757 -0.195,1.71 0.213,2.118c1.238,1.238 3.711,0.292 3.711,-1.42c0,-2.063 -3.183,-2.628 -3.924,-0.698m-172.669,1.105c7.645,4.661 7.746,16.463 0.178,20.717c-6.015,3.38 -14.391,1.209 -17.079,-4.428c-4.052,-8.498 1.559,-17.879 10.694,-17.879c2.184,0 4.625,0.625 6.207,1.59m28.649,4.546c-0.857,2.234 1.616,4.129 3.253,2.491c0.721,-0.72 1.092,-1.877 0.826,-2.571c-0.642,-1.672 -3.427,-1.617 -4.079,0.08m83.994,1.522c-1.318,1.318 -0.939,12.956 0.514,15.785c1.862,3.624 4.221,1.287 4.472,-4.429c0.396,-9.018 -1.959,-14.382 -4.986,-11.356m-120.25,2.466c-1.458,0.588 -1.223,3.213 0.342,3.814c2.034,0.78 4.017,-1.507 2.691,-3.104c-1.077,-1.297 -1.394,-1.372 -3.033,-0.71m161.88,0.75c-1.198,3.121 1.915,9.12 4.732,9.12c2.704,0 3.057,-2.207 1.012,-6.327c-1.951,-3.929 -4.78,-5.305 -5.744,-2.793m-21.547,0.053c-1.899,1.899 2.229,16.536 4.768,16.906c3.073,0.447 3.463,-1.363 1.765,-8.198c-2.17,-8.737 -4.028,-11.213 -6.533,-8.708m-112.077,6.409c-0.665,1.734 1.268,3.667 3.002,3.002c1.698,-0.652 1.749,-3.216 0.077,-3.858c-1.958,-0.752 -2.522,-0.595 -3.079,0.856m24.205,6.458c-0.653,0.77 -2.11,3.38 -3.238,5.8c-15.13,32.461 -15.665,33.897 -13.013,34.915c2.349,0.901 3.483,-0.959 12.751,-20.915c2.043,-4.4 4.247,-8.972 4.898,-10.159c4.345,-7.93 3.295,-15.176 -1.398,-9.641m24.278,1.252c-2.178,2.318 -2.506,9.104 -0.477,9.883c2.766,1.061 5.801,-5.887 4.298,-9.841c-0.901,-2.37 -1.627,-2.378 -3.821,-0.042m-55.619,3.161c-1.755,1.284 -0.968,3.787 1.191,3.787c2.005,0 2.825,-2.207 1.362,-3.67c-0.943,-0.943 -1.395,-0.964 -2.553,-0.117m149.788,1.587c-0.212,2.297 0.247,4.381 1.629,7.4c0.805,1.76 2.633,5.72 4.061,8.8c1.429,3.08 2.988,6.5 3.465,7.6c2.025,4.667 5.52,6.405 6.523,3.244c0.469,-1.477 -0.077,-2.983 -4.947,-13.644c-6.098,-13.349 -6.767,-14.4 -9.163,-14.4c-0.812,0 -1.517,0.45 -1.568,1m-48.548,5.56c-1.683,1.683 -1.079,3.04 1.354,3.04c2.503,0 3.71,-1.656 2.263,-3.103c-1.16,-1.16 -2.416,-1.138 -3.617,0.063m-112.126,6.84c-3.12,3.772 -2.983,6.2 0.35,6.2c1.981,0 2.705,-0.58 4.275,-3.427c3.333,-6.041 -0.179,-8.146 -4.625,-2.773m88.095,0.246c-1.679,1.802 -1.765,2.415 -3.118,22.354c-0.344,5.06 -0.887,9.609 -1.208,10.108c-1.101,1.713 1.021,6.003 2.837,5.735c2.708,-0.398 3.465,-4.933 5.054,-30.273c0.554,-8.843 -0.508,-11.205 -3.565,-7.924m52.983,9.095c-0.728,1.897 0.302,3.812 1.886,3.507c0.885,-0.17 1.402,-0.999 1.402,-2.248c0,-2.281 -2.525,-3.247 -3.288,-1.259m-26.712,18.021c0,9.238 1.11,11.99 4.335,10.752c3.388,-1.3 1.039,-17.895 -2.535,-17.908c-1.733,-0.006 -1.8,0.26 -1.8,7.156m-58.917,-3.495c-2.264,3.454 -1.951,8.733 0.517,8.733c1.621,0 2.213,-0.616 3.124,-3.251c2.059,-5.956 -0.655,-10.041 -3.641,-5.482" id="path0"/>
   <path fill-rule="evenodd" fill="#2ba146" d="m196.955,5.37886c-3.108,5.988 -0.79,14.031 3.482,12.085c2.509,-1.144 4.032,-6.252 3.051,-10.238c-0.819,-3.334 -5.128,-4.552 -6.533,-1.847m5.283,4.375c0.206,3.925 0,4.695 -1.546,5.777c-2.431,1.704 -3.892,0.365 -3.892,-3.565c0,-8.104 5.021,-10.146 5.438,-2.212m54.424,11.672c-6.998,8.262 -7.995,20.778 -1.382,17.358c2.283,-1.18 7.92,-11.915 7.92,-15.081c0,-3.55 -4.216,-5.018 -6.538,-2.277m4.938,2.446c0,2.72 -5.019,12.965 -6.854,13.992c-2.371,1.327 -4.066,-1.29 -2.908,-4.49c3.557,-9.839 9.762,-15.878 9.762,-9.502m-93.907,2.664c-2.461,3.514 0.192,11.89 3.765,11.89c2.725,0 3.743,-1.517 3.73,-5.56c-0.022,-6.898 -4.467,-10.652 -7.495,-6.33m5.799,1.972c1.284,2.819 1.126,6.386 -0.349,7.861c-2.444,2.443 -3.891,1.029 -4.612,-4.506c-0.759,-5.828 2.752,-8.203 4.961,-3.355m-93.734,8.143c-2.056,2.273 -1.742,3.187 3.772,10.975c8.672,12.247 9.034,12.561 12.805,11.114c3.306,-1.268 1.741,-4.752 -8.945,-19.914c-2.592,-3.679 -5.517,-4.512 -7.632,-2.175m203.78,-0.292c-3.287,2.302 -5.605,8.225 -3.939,10.066c2.141,2.366 4.232,1.963 7.261,-1.399c5.184,-5.754 2.503,-12.747 -3.322,-8.667m-140.68,1.467c-1.292,1.971 -0.798,4.778 3.554,20.2c1.053,3.73 4.014,14.859 4.871,18.304c2.027,8.153 8.717,10.198 8.717,2.665c0,-2.086 -9.327,-37.072 -10.602,-39.769c-0.52,-1.1 -0.958,-2.061 -0.973,-2.135c-0.297,-1.424 -4.518,-0.867 -5.567,0.735m77.745,-0.4c-4.12,4.632 -3.486,12.2 1.021,12.2c2.811,0 4.74,-3.34 4.936,-8.549c0.163,-4.35 -3.395,-6.531 -5.957,-3.651m-129.963,8.177c6.363,9.065 6.925,10.392 5.061,11.939c-2.675,2.22 -16.86,-15.742 -15.412,-19.516c1.288,-3.355 4.149,-1.261 10.351,7.577m198.16,-7.166c0,3.898 -5.574,9.671 -7.663,7.937c-1.562,-1.297 -1.447,-2.078 0.897,-6.078c2.314,-3.949 6.766,-5.172 6.766,-1.859m-140.44,1.589c0.941,1.799 2.576,7.42 4.421,15.2c0.366,1.54 1.212,4.78 1.882,7.2c4.897,17.698 5.104,20 1.807,20c-2.393,0 -3.276,-2.557 -9.671,-28c-0.719,-2.86 -1.617,-5.92 -1.996,-6.8c-3.064,-7.124 0.181,-14.057 3.557,-7.6m77.116,-0.043c0.408,2.887 -1.501,7.943 -3.202,8.483c-3.804,1.207 -4.447,-3.43 -1.315,-9.489c1.099,-2.125 4.172,-1.441 4.517,1.006m-109.861,0.026c-2.872,3.174 1.59,12.017 6.065,12.017c3.767,0 3.436,-7.757 -0.499,-11.692c-2.323,-2.322 -3.686,-2.402 -5.566,-0.325m78.822,-0.427c-2.276,2.742 0.862,7.377 3.763,5.558c2.855,-1.789 1.828,-6.714 -1.4,-6.714c-0.772,0 -1.836,0.52 -2.363,1.156m-72.756,3.244c2.326,3.982 2.011,7.764 -0.622,7.453c-3.293,-0.389 -6.624,-7.622 -4.492,-9.753c1.176,-1.177 3.763,-0.013 5.114,2.3m77.519,-1.36c0,1.884 -1.506,3.346 -2.897,2.812c-2.073,-0.795 -1.343,-4.252 0.897,-4.252c1.393,0 2,0.437 2,1.44m46.124,4.823c-1.723,1.904 -1.67,2.776 0.279,4.54c2.193,1.985 5.597,0.551 5.597,-2.358c0,-3.286 -3.65,-4.642 -5.876,-2.182m4.491,1.137c0.568,1.627 -0.281,3 -1.853,3c-1.764,0 -2.668,-1.247 -2.058,-2.838c0.546,-1.422 3.43,-1.542 3.911,-0.162m-56.578,6.49c-3.795,3.796 -2.401,12.51 2.002,12.51c4.075,0 5.54,-10.906 1.798,-13.381c-1.615,-1.067 -1.935,-0.994 -3.8,0.871m3.828,0.89c1.257,1.256 1.101,8.174 -0.214,9.489c-2.294,2.294 -5.572,-2.087 -4.565,-6.101c0.93,-3.703 2.998,-5.169 4.779,-3.388m-127.371,1.784c-13.735,1.792 -18.144,21.485 -6.894,30.794c13.209,10.931 33.045,-3.105 27.472,-19.439c-2.777,-8.14 -10.892,-12.618 -20.578,-11.355m221.6,0c-13.38,1.746 -18.02,22.037 -7.031,30.748c13.699,10.858 33.286,-2.904 27.599,-19.393c-2.87,-8.321 -10.697,-12.642 -20.568,-11.355m-76.556,2.198c-0.665,2.649 0.929,4.591 3.513,4.278c4.637,-0.561 4.219,-5.617 -0.504,-6.089c-2.105,-0.21 -2.572,0.072 -3.009,1.811m-132.178,1.186c6.88,4.714 9.232,15.986 4.712,22.583c-10.727,15.655 -34.909,3.363 -28.944,-14.713c2.978,-9.025 16.254,-13.337 24.232,-7.87m41.964,-0.885c-1.723,1.904 -1.67,2.776 0.279,4.54c2.193,1.985 5.597,0.551 5.597,-2.358c0,-3.286 -3.65,-4.642 -5.876,-2.182m95.211,-0.201c0.843,2.197 -1.978,4.282 -3.329,2.46c-0.603,-0.813 -0.902,-1.983 -0.665,-2.6c0.584,-1.522 3.393,-1.424 3.994,0.14m19.754,-0.094c-1.853,1.297 -9.889,18.394 -9.889,21.038c0,3.849 3.56,5.224 6.201,2.394c2.106,-2.256 9.799,-18.664 9.799,-20.899c0,-3.045 -3.38,-4.446 -6.111,-2.533m65.068,1.463c9.119,6.32 9.104,20.428 -0.03,26.758c-9.465,6.559 -24.068,0.236 -25.136,-10.884c-1.403,-14.599 13.469,-23.979 25.166,-15.874m-39.54,2.323c-1.706,2.335 -5.397,7.486 -8.203,11.446c-2.805,3.96 -6.899,9.72 -9.098,12.8c-4.97,6.962 -5.71,11.817 -1.868,12.258c3.096,0.355 3.442,-0.018 13.51,-14.576c4.9,-7.085 10.13,-14.622 11.621,-16.748c6.018,-8.576 0.207,-13.625 -5.962,-5.18m-135.875,-2.018c0.873,2.278 -2.578,3.589 -4.225,1.605c-0.642,-0.773 -0.625,-1.313 0.062,-2c1.363,-1.363 3.568,-1.154 4.163,0.395m41.73,0.464c-1.098,1.696 0.008,23.083 1.549,29.977c0.877,3.917 6.339,4.256 7.293,0.452c1.171,-4.666 -1.793,-29.234 -3.715,-30.79c-2.358,-1.91 -3.719,-1.814 -5.127,0.361m73.066,-0.675c1.446,1.743 -8.445,21.577 -10.938,21.931c-1.574,0.223 -1.8,-0.098 -1.8,-2.558c0,-1.547 0.81,-4.362 1.8,-6.256c0.99,-1.893 2.664,-5.422 3.719,-7.842c2.898,-6.644 4.88,-8.093 7.219,-5.275m28.041,1.475c-0.022,2.706 -3.754,8.456 -21.544,33.2c-3.018,4.197 -5.635,4.637 -5.635,0.947c0,-2.269 1.155,-5.401 2.341,-6.347c0.275,-0.22 4.76,-6.52 9.966,-14c11.905,-17.105 14.921,-19.903 14.872,-13.8m-95.804,1.2c0.514,1.21 1.214,6.16 1.554,11c0.341,4.84 0.846,10.29 1.121,12.111c0.526,3.474 -0.574,6.698 -2.278,6.677c-2.104,-0.027 -3.008,-1.462 -3.298,-5.242c-0.167,-2.17 -0.507,-4.846 -0.757,-5.946c-0.697,-3.076 -1.32,-18.262 -0.804,-19.607c0.764,-1.99 3.445,-1.385 4.462,1.007m-108.782,0.196c-10.407,6.344 -5.958,22.398 6.207,22.398c6.826,0 11.994,-5.168 11.994,-11.994c0,-6.826 -5.168,-11.994 -11.994,-11.994c-2.184,0 -4.625,0.625 -6.207,1.59m221.6,0c-10.277,6.266 -5.973,22.39 5.98,22.401c7.131,0.006 12.227,-4.994 12.227,-11.997c0,-9.355 -10.287,-15.233 -18.207,-10.404m-207.646,2.587c5.707,5.708 2.858,16.457 -4.821,18.189c-8.679,1.957 -15.108,-4.58 -13.251,-13.474c1.536,-7.352 12.559,-10.228 18.072,-4.715m221.509,-0.131c6.135,5.764 3.336,16.501 -4.779,18.331c-10.971,2.474 -18.295,-10.111 -10.45,-17.956c3.969,-3.97 11.212,-4.148 15.229,-0.375m-201.921,-1.176c-2.843,1.991 -2.117,5.448 1.212,5.771c3.778,0.366 5.173,-2.49 2.515,-5.149c-1.788,-1.788 -2.01,-1.825 -3.727,-0.622m3.408,2.194c0.65,1.044 0.568,1.56 -0.343,2.141c-2.771,1.766 -5.193,-0.41 -3.169,-2.848c1.186,-1.429 2.323,-1.2 3.512,0.707m-33.41,4.263c-1.194,1.194 -0.493,5.032 1.072,5.87c1.318,0.705 1.969,0.496 3.631,-1.167c1.663,-1.662 1.872,-2.313 1.167,-3.631c-0.838,-1.565 -4.676,-2.266 -5.87,-1.072m221.6,0c-1.055,1.056 -0.502,4.047 1,5.407c2.734,2.474 6.622,-1.061 4.836,-4.398c-0.806,-1.506 -4.67,-2.174 -5.836,-1.009m-216.989,1.609c0.283,0.738 0.025,1.831 -0.573,2.429c-1.362,1.363 -3.771,0.518 -3.771,-1.323c0,-2.677 3.408,-3.544 4.344,-1.106m221.6,0c0.831,2.166 -1.605,4.14 -3.173,2.571c-1.502,-1.501 -0.745,-3.913 1.229,-3.913c0.786,0 1.661,0.604 1.944,1.342m-87.384,5.218c-1.522,1.522 -1.122,3.697 0.927,5.04c2.335,1.529 4.373,0.838 5.009,-1.699c0.869,-3.46 -3.409,-5.868 -5.936,-3.341m4.24,2.24c0,2.281 -2.525,3.247 -3.288,1.259c-0.728,-1.897 0.302,-3.812 1.886,-3.507c0.885,0.17 1.402,0.999 1.402,2.248m-177.54,-0.066c-2.084,2.302 -1.263,4.915 2.34,7.447c22.328,15.693 25.292,16.989 25.845,11.3c0.273,-2.813 -1.366,-4.273 -16.759,-14.937c-8.369,-5.797 -9.336,-6.12 -11.426,-3.81m15.139,8.038c12.898,9.013 15.272,12.028 9.47,12.028c-3.132,0 -24.269,-14.989 -24.269,-17.21c0,-4.504 1.88,-3.846 14.799,5.182m138.762,-6.333c-2.269,2.269 -1.971,10.04 0.446,11.638c3.322,2.196 5.556,-0.131 5.836,-6.077c0.323,-6.872 -2.485,-9.358 -6.282,-5.561m4.679,0.921c1.285,1.285 1.224,7.174 -0.093,8.974c-2.181,2.983 -4.125,1.27 -4.391,-3.868c-0.286,-5.549 1.737,-7.853 4.484,-5.106m121.484,5.303c-2.368,2.616 -1.13,5.737 2.276,5.737c3.651,0 4.829,-3.849 1.822,-5.955c-2.247,-1.573 -2.489,-1.56 -4.098,0.218m4.276,1.337c0.795,0.957 0.795,1.443 0,2.4c-1.982,2.388 -5.37,0.56 -3.934,-2.123c0.956,-1.787 2.585,-1.902 3.934,-0.277m-181.147,0.662c-3.923,2.869 0.719,12.967 5.699,12.396c4.094,-0.47 2.478,-10.18 -2.102,-12.631c-1.933,-1.035 -1.853,-1.04 -3.597,0.235m17.46,1.758c-1.24,1.893 -1.233,2.121 0.106,3.6c3.083,3.408 8.151,0.189 5.668,-3.6c-0.728,-1.111 -2.027,-2.02 -2.887,-2.02c-0.86,0 -2.159,0.909 -2.887,2.02m49.447,-1.06c-2.847,2.847 -0.064,7.079 3.84,5.84c3.023,-0.959 1.649,-6.8 -1.6,-6.8c-0.704,0 -1.712,0.432 -2.24,0.96m66.675,0.116c-1.08,0.79 -1.33,1.636 -0.941,3.187c1.013,4.038 6.906,3.524 6.906,-0.601c0,-3.36 -3.081,-4.696 -5.965,-2.586m-128.426,2.324c1.784,2.927 2.176,8.615 0.591,8.575c-3.62,-0.093 -8.186,-9.44 -5.2,-10.645c2.135,-0.862 3.08,-0.437 4.609,2.07m17.447,0.4c0.207,1.457 -0.128,1.8 -1.753,1.8c-2.279,0 -3.264,-1.106 -2.577,-2.894c0.723,-1.885 4.025,-1.051 4.33,1.094m48.679,-0.938c0.838,2.184 -1.835,4.18 -3.444,2.571c-1.636,-1.635 -0.885,-3.833 1.309,-3.833c0.908,0 1.868,0.568 2.135,1.262m67.02,-0.534c0.762,1.233 -0.449,3.272 -1.943,3.272c-2.056,0 -3.422,-1.87 -2.233,-3.059c1.117,-1.117 3.541,-1.241 4.176,-0.213m-156.835,0.684c-3.007,2.008 -2.773,3.902 1.245,10.057c4.97,7.613 7.203,9.26 10.035,7.405c2.754,-1.805 2.542,-3.071 -1.556,-9.291c-4.58,-6.952 -7.666,-9.545 -9.724,-8.171m4.556,3.188c3.604,4.087 7.188,10.159 6.955,11.785c-0.647,4.52 -7.45,-0.686 -11.328,-8.669c-2.371,-4.882 0.814,-7.151 4.373,-3.116m96.408,0.439c-2.343,1.714 -1.44,5.697 1.364,6.019c4.134,0.474 6.04,-3.064 3.089,-5.734c-1.764,-1.596 -2.587,-1.649 -4.453,-0.285m82.222,0.361c-1.404,2.22 0.261,5 2.994,5c2.801,0 4.369,-2.428 3.1,-4.8c-1.076,-2.011 -4.87,-2.135 -6.094,-0.2m4.808,0.665c0.838,2.183 0.546,2.735 -1.447,2.735c-1.985,0 -2.914,-1.231 -2.264,-3c0.525,-1.425 3.134,-1.239 3.711,0.265m-82.841,0.879c0.929,1.66 -0.94,3.832 -2.712,3.152c-1.734,-0.666 -2.384,-2.937 -1.078,-3.764c1.7,-1.077 2.959,-0.873 3.79,0.612m-125.74,2.389c-2.664,2.664 10.418,19.421 15.994,20.487c2.757,0.527 5.02,-1.736 4.493,-4.493c-1.066,-5.576 -17.823,-18.658 -20.487,-15.994m11.941,7.622c8.243,7.974 9.626,11.154 5.081,11.683c-2.403,0.28 -16.755,-13.827 -16.755,-16.469c0,-4.633 3.364,-3.254 11.674,4.786m-42.579,-2.82c-1.137,4.528 5.104,6.278 6.517,1.827c0.705,-2.22 -0.92,-3.962 -3.695,-3.962c-1.81,0 -2.398,0.445 -2.822,2.135m166.256,-0.504c-3.09,2.879 -0.412,7.474 3.355,5.757c2.492,-1.135 2.877,-4.617 0.694,-6.274c-1.85,-1.405 -2.008,-1.384 -4.049,0.517m51.249,2.417c-5.552,3.834 -5.8,4.14 -5.8,7.178c0,5.77 4.177,4.667 15.443,-4.078c1.755,-1.362 2.191,-2.288 2,-4.245c-0.41,-4.224 -4.44,-3.828 -11.643,1.145m-212.6,-0.837c0,1.454 -0.485,2.058 -1.8,2.245c-1.8,0.255 -2.684,-2.706 -1.239,-4.15c1.187,-1.187 3.039,-0.026 3.039,1.905m223.113,-0.613c1.045,1.666 -0.57,3.339 -7.772,8.049c-9.207,6.022 -10.719,1.106 -1.741,-5.661c5.725,-4.315 7.954,-4.875 9.513,-2.388m-57.88,0.242c1.296,1.562 -0.798,4.052 -2.771,3.295c-1.501,-0.576 -1.687,-3.43 -0.262,-4.005c1.639,-0.662 1.956,-0.587 3.033,0.71m13.842,2.949c-7.987,7.554 -8.464,12.806 -1.075,11.844c1.596,-0.208 9.417,-7.852 10.886,-10.64c3.416,-6.485 -3.35,-7.315 -9.811,-1.204m8.839,-2.124c0.863,2.25 0.56,2.796 -4.441,8.004c-5.86,6.103 -9.473,6.803 -9.473,1.834c0,-3.612 12.824,-12.679 13.914,-9.838m-228.123,4.868c-5.232,2.108 0.443,9.867 7.217,9.867c6.19,0 4.803,-6.322 -2.012,-9.169c-3.093,-1.293 -3.57,-1.357 -5.205,-0.698m47.169,0.427c-2.443,2.443 -0.675,5.056 6.868,10.145c6.175,4.167 10,4.396 10.432,0.624c0.593,-5.182 -13.878,-14.191 -17.3,-10.769m9.363,3.2c7.18,4.82 9.104,8.151 5.266,9.114c-3.697,0.928 -14.865,-8.237 -13.709,-11.25c0.71,-1.851 3.588,-1.122 8.443,2.136m-50.39,-0.994c6.298,3.213 4.25,7.895 -2.225,5.09c-3.45,-1.495 -5.126,-3.557 -4.409,-5.424c0.639,-1.666 2.942,-1.55 6.634,0.334m274.727,4.523c-4.146,2.045 -5.479,3.956 -4.404,6.314c1.734,3.807 11.503,1.23 12.649,-3.337c0.971,-3.868 -3.306,-5.412 -8.245,-2.977m-48.336,2.796c-6.951,4.456 -8.724,6.222 -8.724,8.694c0,4.891 2.643,5.093 9.362,0.716c8.311,-5.415 10.227,-8.325 7.287,-11.064c-2.261,-2.107 -1.962,-2.169 -7.925,1.654m-96.429,-0.88c-50.793,11.478 -69.263,72.961 -32.805,109.204c41.375,41.132 110.939,12.307 111.036,-46.009c0.069,-41.029 -38.489,-72.176 -78.231,-63.195m151.93,-0.571c0.862,2.244 -5.543,6.646 -8.767,6.025c-2.406,-0.463 -2.274,-3.197 0.252,-5.218c2.54,-2.033 7.852,-2.536 8.515,-0.807m-48.69,0.252c2.175,0.835 1.393,3.28 -1.972,6.16c-6.995,5.988 -13.221,7.757 -12.619,3.586c0.259,-1.796 6.153,-6.779 10.656,-9.008c2.861,-1.416 2.397,-1.328 3.935,-0.738m-209.107,7.461c-1.825,3.411 0.04,6.211 3.549,5.33c2.345,-0.588 3.512,-3.883 2.014,-5.687c-1.396,-1.683 -4.581,-1.478 -5.563,0.357m231.395,-0.289c-7.69,3.365 -5.098,11.076 2.648,7.875c4.103,-1.695 5.929,-3.388 5.929,-5.497c0,-3.609 -3.528,-4.587 -8.577,-2.378m-227.431,0.732c1.322,1.593 0.447,3.61 -1.567,3.61c-1.169,0 -1.625,-0.524 -1.625,-1.867c0,-3.017 1.469,-3.819 3.192,-1.743m35.714,0.502c-1.37,1.955 -0.956,3.611 1.188,4.758c2.2,1.178 5.506,-1.019 5.506,-3.658c0,-2.604 -5.059,-3.435 -6.694,-1.1m198.294,1.108c0,1.832 -0.53,2.632 -2.304,3.483c-7.14,3.422 -10.73,-0.949 -3.696,-4.501c4.556,-2.301 6,-2.056 6,1.018m-194.121,-1.292c1.578,1 0.779,3.653 -1.185,3.934c-2.006,0.288 -3.143,-1.937 -1.81,-3.543c1.055,-1.271 1.512,-1.331 2.995,-0.391m-31.626,5.386c-1.552,4.045 15.436,14.434 22.478,13.747c3.843,-0.375 3.385,-7.841 -0.481,-7.841c-0.386,0 -3.958,-1.62 -7.936,-3.6c-7.812,-3.888 -13.12,-4.759 -14.061,-2.306m13.82,3.614c10.933,5.157 14.139,8.692 7.884,8.692c-6.272,0 -22.371,-9.174 -20.357,-11.6c1.549,-1.867 3.133,-1.498 12.473,2.908m256.836,-1.306c-7.606,2.221 -9.14,3.476 -8.053,6.585c0.872,2.497 4.467,3.347 8.239,1.947c1.158,-0.429 3.842,-1.23 5.966,-1.779c5.057,-1.306 6.929,-3.83 5.013,-6.755c-1.585,-2.419 -2.873,-2.419 -11.165,0.002m10.549,1.815c0.295,2.079 -1.795,3.191 -9.985,5.313c-5.685,1.472 -7.473,1.08 -7.473,-1.641c0,-2.111 0.371,-2.325 7.6,-4.384c6.519,-1.857 9.524,-1.64 9.858,0.712m-334.687,1.305c-2.305,1.686 -0.79,5.167 2.829,6.501c15.146,5.584 22.596,6.042 23.047,1.416c0.309,-3.176 -0.167,-3.439 -11.89,-6.582c-10.347,-2.774 -11.825,-2.915 -13.986,-1.335m10.126,1.641c4.127,1.079 8.403,2.189 9.503,2.467c6.243,1.573 7.791,5.324 2.409,5.835c-2.502,0.237 -4.142,-0.094 -11.209,-2.265c-1.1,-0.338 -3.525,-1.072 -5.388,-1.631c-5.525,-1.659 -7.167,-5.233 -2.915,-6.344c0.054,-0.014 3.474,0.858 7.6,1.938m233.96,0.894c-2.464,2.465 -1.016,5.943 2.475,5.943c2.688,0 3.916,-2.797 2.306,-5.254c-1.474,-2.25 -3,-2.47 -4.781,-0.689m4.199,2.543c0.208,1.466 -0.126,1.8 -1.8,1.8c-1.675,0 -2.056,-0.381 -2.056,-2.056c0,-2.735 3.463,-2.506 3.856,0.256m54.633,-0.454c-1.014,2.686 0.345,4.807 2.884,4.502c4.465,-0.536 4.415,-5.567 -0.06,-6.102c-1.615,-0.193 -2.293,0.191 -2.824,1.6m4.711,1.995c0,1.583 -0.352,1.92 -1.792,1.715c-2,-0.286 -2.921,-2.921 -1.359,-3.886c1.624,-1.004 3.151,0.048 3.151,2.171m-17.943,0.716c-2.229,2.229 -0.579,5.943 2.64,5.943c1.871,0 3.303,-1.561 3.303,-3.6c0,-3.369 -3.527,-4.759 -5.943,-2.343m4.743,2.332c0,1.765 -2.487,2.644 -3.791,1.34c-1.345,-1.345 -0.019,-3.47 1.987,-3.185c1.181,0.167 1.804,0.805 1.804,1.845m-119.003,2.905c16.346,7.801 22.56,26.829 14.335,43.902c-2.069,4.296 -25.673,28.804 -27.741,28.804c-1.905,0 -24.644,-23.913 -27.198,-28.602c-14.679,-26.948 13.169,-57.197 40.604,-44.104m-135.285,-1.296c-1.642,4.278 1.212,6.439 11.209,8.483c10.637,2.175 12.3,-4.89 1.853,-7.875c-6.874,-1.965 -12.442,-2.224 -13.062,-0.608m11.842,1.534c6.852,1.914 8.81,4.161 5.276,6.052c-2.032,1.088 -13.358,-1.812 -15.564,-3.986c-3.885,-3.826 0.696,-4.747 10.288,-2.066m213.066,0.115c-5.853,3.177 -3.64,8.184 3.203,7.246c6.015,-0.824 9.099,-4.254 6.568,-7.303c-1.273,-1.535 -6.898,-1.502 -9.771,0.057m9.242,1.268c1.105,1.765 -0.488,3.255 -4.857,4.545c-3.647,1.076 -6.605,0.274 -6.605,-1.79c0,-3.4 9.612,-5.71 11.462,-2.755m-206.662,3.885c-2.139,2.139 -2.016,3.691 0.42,5.287c3.697,2.422 7.029,-2.566 3.717,-5.563c-1.864,-1.686 -2.197,-1.664 -4.137,0.276m182.124,-0.137c-1.911,2.111 -1.632,4.502 0.668,5.733c3.763,2.014 6.945,-2.976 3.745,-5.872c-1.875,-1.697 -2.777,-1.668 -4.413,0.139m-178.271,2.744c0.205,1.774 -0.067,2.193 -1.425,2.193c-1.861,0 -2.859,-1.724 -2.116,-3.659c0.776,-2.022 3.257,-0.994 3.541,1.466m182.403,-0.395c0.328,2.3 -1.934,3.253 -3.649,1.538c-1.063,-1.063 -1.097,-1.478 -0.212,-2.544c1.44,-1.735 3.549,-1.185 3.861,1.006m-97.856,6.064c-12.136,5.572 -12.273,22.427 -0.232,28.602c12.663,6.494 26.546,-8.518 19.909,-21.528c-3.339,-6.545 -13.148,-10.071 -19.677,-7.074m176,-0.501c-6.743,1.643 -5.023,8.948 1.888,8.021c4.934,-0.661 7.712,-2.312 7.712,-4.583c0,-3.127 -4.402,-4.704 -9.6,-3.438m5.924,1.118c3.949,1.377 3.108,3.848 -1.796,5.272c-7.602,2.209 -10.687,-2.606 -3.328,-5.194c1.32,-0.465 2.436,-0.873 2.481,-0.908c0.044,-0.035 1.233,0.339 2.643,0.83m-342.667,1.164c-2.19,2.19 -0.793,5.943 2.211,5.943c3.6,0 4.937,-3.461 2.269,-5.876c-1.826,-1.653 -2.878,-1.669 -4.48,-0.067m14.943,0.35c-2.024,0.834 -2.537,4.81 -0.8,6.194c3.47,2.766 11.961,1.422 12.449,-1.97c0.452,-3.14 -7.386,-5.982 -11.649,-4.224m-10.6,1.193c1.049,1.264 -0.09,3.6 -1.755,3.6c-0.997,0 -3.045,-2.069 -3.045,-3.076c0,-1.78 3.446,-2.156 4.8,-0.524m308.009,-0.01c-1.242,1.496 -0.453,4.868 1.297,5.54c1.439,0.552 5.094,-1.458 5.094,-2.801c0,-3.394 -4.314,-5.242 -6.391,-2.739m-288.119,1.279c2.497,2.327 1.012,3.931 -3.641,3.931c-5.304,0 -8.519,-2.663 -6.116,-5.067c1.29,-1.289 7.991,-0.509 9.757,1.136m258.931,-0.415c-11.835,1.121 -13.58,1.861 -13.051,5.533c0.477,3.314 3.204,3.628 18.497,2.136c14.809,-1.446 15.694,-1.748 15.721,-5.363c0.029,-3.9 -2.002,-4.121 -21.167,-2.306m33.835,0.958c0.328,2.3 -1.934,3.253 -3.649,1.538c-1.063,-1.063 -1.097,-1.478 -0.212,-2.544c1.44,-1.735 3.549,-1.185 3.861,1.006m-14.256,1.29c0,2.942 -1.386,3.503 -10,4.047c-4.4,0.278 -10.725,0.699 -14.055,0.935c-6.954,0.492 -8.929,-0.53 -6.998,-3.621c0.871,-1.396 1.874,-1.672 6.245,-1.719c2.865,-0.031 5.928,-0.366 6.808,-0.744c4.13,-1.775 18,-0.926 18,1.102m-233.914,1.763c-1.216,3.168 0.39,5.935 3.443,5.935c1.736,0 3.442,-3.785 2.5,-5.546c-1.079,-2.016 -5.215,-2.286 -5.943,-0.389m188.047,-0.732c-0.971,0.971 -0.553,4.855 0.629,5.835c2.644,2.195 5.863,-0.57 4.941,-4.244c-0.521,-2.075 -4.071,-3.089 -5.57,-1.591m-183.335,1.86c0.946,2.983 -1.606,4.407 -3.598,2.007c-0.795,-0.957 -0.795,-1.443 0,-2.4c1.388,-1.672 2.998,-1.496 3.598,0.393m187.861,-0.471c0.64,1.666 -1.388,4.03 -2.943,3.433c-1.311,-0.503 -1.798,-3.007 -0.783,-4.022c0.941,-0.94 3.282,-0.57 3.726,0.589m-191.659,14.931c-2.856,1.686 -1.452,6.347 1.911,6.347c2.886,0 4.303,-2.712 2.717,-5.2c-1.212,-1.903 -2.715,-2.275 -4.628,-1.147m188,0.011c-1.898,1.106 -1.848,5.24 0.076,6.27c1.063,0.569 1.96,0.452 3.2,-0.417c3.802,-2.663 0.715,-8.177 -3.276,-5.853m-205.195,0.7c-4.916,1.197 -6.442,4.088 -3.542,6.712c3.122,2.826 12.137,0.644 12.137,-2.937c0,-3.343 -3.698,-4.967 -8.595,-3.775m7.121,2.683c1.642,2.522 -5.045,5.485 -8.661,3.837c-1.982,-0.903 -2.58,-3.944 -0.865,-4.4c0.55,-0.146 2.08,-0.615 3.4,-1.042c2.416,-0.781 5.016,-0.099 6.126,1.605m13.874,-0.314c0,2.318 -1.152,2.863 -3.076,1.457c-1.895,-1.386 -0.919,-3.96 1.378,-3.632c1.195,0.17 1.698,0.814 1.698,2.175m187.859,-1.211c0.653,1.7 -1.266,3.855 -2.88,3.236c-1.368,-0.525 -1.871,-2.8 -0.846,-3.825c0.941,-0.94 3.282,-0.57 3.726,0.589m23.398,0.935c-4.154,4.155 -0.314,6.421 12.844,7.58c11.581,1.02 13.899,0.563 13.899,-2.741c0,-3.364 -2.18,-4.314 -12,-5.231c-12.064,-1.127 -13.255,-1.095 -14.743,0.392m-256.657,0.388c-1.607,0.958 -1.877,4.758 -0.44,6.195c3.765,3.765 15.119,-0.796 12.361,-4.966c-1.262,-1.908 -9.377,-2.744 -11.921,-1.229m272.773,0.578c8.124,0.636 11.073,2.112 9.06,4.537c-2.34,2.82 -24.128,0.786 -24.714,-2.307c-0.434,-2.293 2.159,-3.846 5.481,-3.282c1.54,0.262 6.118,0.735 10.173,1.052m-286.489,1.216c-2.116,1.548 -1.458,5.68 0.96,6.022c3.775,0.536 5.876,-4.484 2.609,-6.233c-1.933,-1.034 -1.859,-1.039 -3.569,0.211m24.838,0.191c0.854,2.226 -2.042,4.37 -5.903,4.37c-4.714,0 -7.161,-2.338 -4.859,-4.64c1.472,-1.472 10.177,-1.254 10.762,0.27m279.791,1.59c-1.24,1.893 -1.233,2.121 0.106,3.6c2.465,2.725 5.981,1.537 5.981,-2.02c0,-3.8 -3.959,-4.827 -6.087,-1.58m-329.14,-0.482c-4.015,0.787 -4.773,1.442 -4.773,4.129c0,5.472 19.143,4.826 20.528,-0.693c0.957,-3.81 -6.048,-5.338 -15.755,-3.436m28.344,0.534c0.693,1.807 -0.105,2.728 -2.364,2.728c-1.893,0 -2.762,-2.124 -1.42,-3.467c0.991,-0.991 3.293,-0.541 3.784,0.739m305.582,2.543c-1.129,1.79 -2.692,1.764 -3.812,-0.062c-1.325,-2.161 1.656,-4.353 3.463,-2.546c0.932,0.932 1.015,1.552 0.349,2.608m10.301,-2.587c-4.241,2.975 -0.854,7.067 5.901,7.13c4.467,0.042 6.699,-1.322 6.699,-4.092c0,-2.922 -9.501,-5.212 -12.6,-3.038m-329.522,1.543c1.08,2.814 -3.285,4.5 -11.022,4.257c-7.83,-0.246 -10.469,-2.232 -5.893,-4.435c2.914,-1.403 16.363,-1.262 16.915,0.178m338.484,-0.243c2.153,0.981 2.332,1.375 1.552,3.407c-0.761,1.983 -8.431,1.745 -10.3,-0.32c-2.96,-3.271 3.411,-5.519 8.748,-3.087m-271.402,8.832c-2.275,2.275 -0.445,5.44 3.146,5.44c2.413,0 3.566,-2.054 2.694,-4.8c-0.578,-1.821 -4.256,-2.224 -5.84,-0.64m182.434,-0.034c-2.291,2.291 -0.248,5.829 3.08,5.335c2.429,-0.36 3.78,-2.642 2.641,-4.461c-1.076,-1.719 -4.372,-2.223 -5.721,-0.874m-177.794,1.074c0.795,0.957 0.795,1.443 0,2.4c-1.999,2.409 -4.849,0.566 -3.711,-2.4c0.254,-0.66 0.968,-1.2 1.588,-1.2c0.62,0 1.575,0.54 2.123,1.2m182.256,1.012c0.328,2.3 -1.934,3.253 -3.649,1.538c-1.063,-1.063 -1.097,-1.478 -0.212,-2.544c1.44,-1.735 3.549,-1.185 3.861,1.006m-209.056,2.58c-0.88,0.376 -6.256,1.866 -11.946,3.31c-12.061,3.061 -14.975,4.84 -13.442,8.204c1.028,2.258 5.885,2.94 9.95,1.396c1.903,-0.722 4.99,-1.632 10.838,-3.194c8.687,-2.32 10.292,-2.87 11.6,-3.974c4.136,-3.492 -1.482,-8.1 -7,-5.742m224.924,0.671c-1.877,2.074 -1.643,3.891 0.696,5.424c3.654,2.394 7.268,-3.126 3.78,-5.773c-1.91,-1.45 -2.919,-1.371 -4.476,0.349m-218.275,2.283c0.322,2.267 -0.643,2.725 -12.249,5.817c-5.28,1.406 -10.427,2.89 -11.438,3.297c-2.671,1.076 -5.709,0.907 -7.005,-0.389c-1.647,-1.647 0.691,-3.968 5.243,-5.203c1.98,-0.537 4.68,-1.263 6,-1.614c4.554,-1.21 9.606,-2.65 11.6,-3.307c3.735,-1.23 7.572,-0.546 7.849,1.399m222.551,-0.946c0.795,0.957 0.795,1.443 0,2.4c-1.999,2.409 -4.849,0.566 -3.711,-2.4c0.254,-0.66 0.968,-1.2 1.588,-1.2c0.62,0 1.575,0.54 2.123,1.2m9,2.086c-2.779,2.874 -0.546,5.546 6.549,7.839c9.573,3.092 16.453,0.939 12.158,-3.807c-2.834,-3.131 -16.69,-6.118 -18.707,-4.032m7.961,1.074c8.14,2.227 8.922,2.531 9.705,3.772c1.512,2.397 0.013,4.072 -3.273,3.656c-9.573,-1.21 -16.592,-5.092 -13.44,-7.434c1.905,-1.416 1.811,-1.416 7.008,0.006m-220.738,5.679c-3.535,1.573 -5.416,4.532 -4.257,6.698c1.507,2.815 4.459,2.925 8.667,0.324c7.514,-4.646 3.742,-10.651 -4.41,-7.022m173.337,0.009c-1.762,2.123 -0.005,5.228 4.178,7.381c4.101,2.11 6.516,1.885 7.92,-0.737c2.344,-4.38 -8.866,-10.538 -12.098,-6.644m-237.104,1.315c-2.395,3.419 2.076,7.014 5.204,4.183c1.925,-1.743 1.945,-2.931 0.077,-4.622c-2.001,-1.811 -3.811,-1.66 -5.281,0.439m70.692,-0.626c1.351,1.629 -0.349,4.04 -4.013,5.692c-6.294,2.838 -8.678,-1.392 -2.735,-4.854c3.757,-2.189 5.452,-2.399 6.748,-0.838m174.052,0.731c5.269,2.864 4.472,6.746 -1.153,5.621c-3.116,-0.623 -5.647,-3.097 -5.647,-5.52c0,-2.509 2.305,-2.544 6.8,-0.101m-240,1.721c0,1.83 -2.686,2.69 -3.63,1.162c-0.99,-1.601 0.08,-3.258 1.932,-2.993c1.079,0.154 1.698,0.821 1.698,1.831m-19.734,0.198c-2.712,0.39 -6.459,3.819 -6.116,5.599c0.76,3.947 8.981,3.968 12.647,0.033c3.248,-3.487 -0.279,-6.529 -6.531,-5.632m333.734,0.191c-3.529,0.855 -3.275,5.338 0.39,6.87c6.029,2.519 10.81,1.652 10.81,-1.959c0,-2.946 -6.873,-5.959 -11.2,-4.911m-327.711,2.022c0.793,2.065 -0.34,3.539 -3.369,4.38c-5.67,1.575 -7.934,0.814 -6.935,-2.333c0.891,-2.806 9.367,-4.49 10.304,-2.047m333.959,-0.333c2.526,0.88 3.91,3.183 2.898,4.82c-1.336,2.162 -10.746,-0.768 -10.746,-3.346c0,-2.537 3.118,-3.123 7.848,-1.474m-68.909,3.508c-2.343,2.344 -0.848,4.791 4.655,7.622c3.906,2.009 5.353,1.796 7.148,-1.05c2.487,-3.942 -8.382,-9.993 -11.803,-6.572m8.191,1.825c2.688,1.53 3.391,4.697 1.227,5.527c-1.386,0.532 -7.078,-1.786 -8.451,-3.44c-2.614,-3.15 2.673,-4.677 7.224,-2.087m-193.777,5.751c-9.144,5.969 -11.18,11.262 -4.325,11.241c6.334,-0.019 16.971,-10.839 13.455,-13.686c-2.472,-2.001 -2.212,-2.071 -9.13,2.445m159.131,-2.912c-2.682,1.961 -1.418,5.761 1.916,5.761c2.507,0 2.828,-0.247 3.069,-2.361c0.242,-2.126 -1.357,-4.439 -3.069,-4.439c-0.272,0 -1.134,0.468 -1.916,1.039m-150.484,2.896c0,2.31 -10.083,10.465 -12.939,10.465c-5.081,0 -3.02,-4.246 4.528,-9.33c5.747,-3.87 8.411,-4.23 8.411,-1.135m153.535,-1.849c1.61,0.618 1.621,2.222 0.025,3.547c-1.562,1.296 -4.052,-0.798 -3.295,-2.771c0.522,-1.359 1.281,-1.539 3.27,-0.776m-210.503,5.049c-6.783,3.28 -8.246,5.049 -6.648,8.035c1.149,2.147 4.478,2.116 8.94,-0.084c1.912,-0.942 4.376,-2.112 5.476,-2.6c3.987,-1.767 5.883,-5.483 3.84,-7.526c-1.667,-1.667 -4.924,-1.057 -11.608,2.175m10.968,-0.059c0,2.066 -1.95,3.592 -8.281,6.48c-10.149,4.629 -12.674,-0.023 -2.719,-5.009c6.522,-3.267 11,-3.866 11,-1.471m254.91,4.003c-3.236,3.575 -1.505,5.13 13.605,12.229c14.024,6.588 17.085,6.92 17.085,1.856c0,-2.49 -1.567,-3.557 -13.967,-9.51c-13.229,-6.351 -14.742,-6.765 -16.723,-4.575m11.49,3.421c17.882,8.579 18.968,9.267 18.115,11.49c-0.757,1.97 -3.923,1.408 -11.436,-2.03c-3.893,-1.783 -8.699,-3.982 -10.679,-4.887c-5.628,-2.575 -5.846,-2.706 -6.674,-4.018c-2.814,-4.461 2.009,-4.712 10.674,-0.555m-214.8,-0.216c-7.615,4.689 -12.303,13.227 -8.407,15.312c5.241,2.805 17.862,-12.291 13.154,-15.734c-1.844,-1.348 -1.878,-1.345 -4.747,0.422m134,0.116c-2.55,2.55 -2.018,3.64 5.64,11.555c8.476,8.762 11.23,10.33 13.738,7.823c2.507,-2.508 0.939,-5.262 -7.823,-13.738c-7.915,-7.658 -9.005,-8.19 -11.555,-5.64m27.36,-0.64c-1.386,1.386 -1.181,3.392 0.503,4.916c1.897,1.717 2.777,1.669 4.508,-0.244c3.167,-3.5 -1.672,-8.011 -5.011,-4.672m4.496,2.052c0.328,2.3 -1.934,3.253 -3.649,1.538c-1.063,-1.063 -1.097,-1.478 -0.212,-2.544c1.44,-1.735 3.549,-1.185 3.861,1.006m-161.921,-0.926c3.08,1.182 -5.887,13.914 -9.8,13.914c-4.856,0 -4.214,-3.239 1.833,-9.257c5.259,-5.233 5.737,-5.513 7.967,-4.657m141.886,7.027c7.96,7.961 9.294,10.959 5.138,11.548c-3.953,0.56 -18.265,-15.324 -16.127,-17.899c1.785,-2.152 3.446,-1.191 10.989,6.351m-233.098,-3.242c-7.557,3.919 -9.333,6.399 -6.563,9.169c2.329,2.329 15.699,-2.9 17.798,-6.96c2.689,-5.199 -3.228,-6.362 -11.235,-2.209m55.001,-1.388c-2.109,1.478 -2.213,3.626 -0.261,5.393c2.01,1.819 3.078,1.664 4.607,-0.67c2.298,-3.507 -0.986,-7.076 -4.346,-4.723m-44.959,0.675c1.524,1.836 0.031,3.454 -5.968,6.472c-6.907,3.476 -10.216,3.702 -9.85,0.674c0.456,-3.775 13.663,-9.742 15.818,-7.146m48.435,2.109c0,1.395 -0.442,1.933 -1.589,1.933c-1.877,0 -2.671,-2.69 -1.09,-3.691c1.655,-1.048 2.679,-0.376 2.679,1.758m-16.329,5.682c-6.349,3.141 -7.791,9.451 -2.159,9.451c3.767,0 9.761,-5.248 8.942,-7.828c-0.953,-3.004 -3.001,-3.494 -6.783,-1.623m56.983,0.051c-0.894,0.99 -3.102,3.96 -4.907,6.6c-1.805,2.64 -4.008,5.7 -4.896,6.8c-1.904,2.357 -2.148,6.592 -0.461,7.991c2.068,1.717 4.911,0.218 7.941,-4.186c1.591,-2.313 4.507,-6.54 6.481,-9.394c1.973,-2.854 3.588,-5.752 3.588,-6.44c0,-3.398 -5.101,-4.301 -7.746,-1.371m108.602,-0.305c-2.227,4.161 8.82,18.205 12.69,16.134c3.007,-1.609 2.165,-5.373 -2.603,-11.636c-4.713,-6.191 -8.32,-7.799 -10.087,-4.498m-102.717,0.578c0.654,1.706 -1.122,5.19 -6.081,11.927c-6.044,8.21 -6.361,8.526 -8.294,8.251c-3.186,-0.453 -2.433,-3.171 3.067,-11.06c7.036,-10.091 10.013,-12.492 11.308,-9.118m112.025,4.727c4.8,6.278 5.447,9.6 1.87,9.6c-3.118,0 -11.259,-11.496 -10.163,-14.352c1.012,-2.638 3.913,-0.976 8.293,4.752m-170.629,-4.714c3.013,1.156 -2.168,8.314 -6.019,8.314c-3.983,0 -3.542,-3.909 0.771,-6.84c3.134,-2.13 3.368,-2.196 5.248,-1.474m213.665,3.637c-37.834,12.566 -30.039,67.316 9.6,67.426c38.619,0.108 48.357,-53.205 12.17,-66.631c-5.075,-1.883 -17.164,-2.324 -21.77,-0.795m-145.058,2.826c-1.787,0.714 -9.742,17.892 -9.742,21.036c0,3.724 2.392,5.472 4.994,3.649c1.961,-1.374 10.206,-18.755 10.206,-21.516c0,-3.043 -2.354,-4.409 -5.458,-3.169m79.218,0.411c-3.823,3.823 5.753,20.857 10.173,18.096c2.301,-1.437 2.117,-4.303 -0.672,-10.521c-3.425,-7.632 -6.774,-10.302 -9.501,-7.575m-128.316,2.247c-3.206,2.643 -4.596,6.524 -3.017,8.426c3.488,4.203 13.059,-4.215 10.413,-9.158c-1.261,-2.356 -3.976,-2.087 -7.396,0.732m6.556,1.539c0,3.029 -5.959,8.116 -8.017,6.844c-1.411,-0.872 -0.821,-4.424 1.044,-6.29c4.073,-4.073 6.973,-4.303 6.973,-0.554m46.4,-0.697c0,2.914 -7.807,19.706 -9.455,20.338c-4.485,1.721 -4.128,-2.63 1.109,-13.523c4.825,-10.036 8.346,-12.911 8.346,-6.815m81.902,1.151c3.64,6.724 4.672,12.077 2.488,12.915c-1.723,0.661 -3.419,-1.016 -5.306,-5.246c-0.901,-2.018 -2.143,-4.714 -2.761,-5.992c-3.002,-6.208 2.268,-7.793 5.579,-1.677m-70.877,1.8c-3.322,3.803 -3.669,10.834 -0.584,11.813c4.025,1.278 8.643,-6.945 6.329,-11.269c-1.23,-2.298 -3.985,-2.558 -5.745,-0.544m49.012,-0.244c-2.276,2.742 0.862,7.377 3.763,5.558c2.855,-1.789 1.828,-6.714 -1.4,-6.714c-0.772,0 -1.836,0.52 -2.363,1.156m-44.997,0.604c2.384,2.384 -0.215,10.525 -3.223,10.098c-1.604,-0.228 -1.811,-0.7 -1.769,-4.027c0.065,-5.067 2.742,-8.321 4.992,-6.071m48.952,0.23c1.329,1.601 0.443,3.61 -1.592,3.61c-0.908,0 -1.859,-0.545 -2.115,-1.21c-0.459,-1.198 0.95,-3.59 2.115,-3.59c0.332,0 1.048,0.535 1.592,1.19m-37.503,2.645c-3.856,7.204 -1.029,21.209 3.763,18.644c2.69,-1.44 4.707,-16.278 2.563,-18.86c-1.406,-1.695 -5.377,-1.559 -6.326,0.216m16.711,0.165c-2.069,3.865 3.38,6.698 5.917,3.076c0.869,-1.24 0.986,-2.137 0.417,-3.2c-1.098,-2.051 -5.213,-1.97 -6.334,0.124m-11.153,0.889c0.497,0.928 0.713,2.998 0.478,4.6c-0.234,1.601 -0.673,4.791 -0.975,7.089c-0.595,4.525 -2.476,6.109 -4.882,4.112c-0.997,-0.827 -1.145,-1.953 -0.718,-5.466c0.296,-2.433 0.648,-5.727 0.782,-7.319c0.414,-4.908 3.397,-6.601 5.315,-3.016m16.311,-0.31c0.619,1.614 -1.536,3.533 -3.236,2.88c-1.159,-0.444 -1.529,-2.785 -0.589,-3.726c1.025,-1.025 3.3,-0.522 3.825,0.846m-125.225,0.988c-16.738,3.142 -17.929,27.868 -1.614,33.495c13.69,4.721 27.067,-8.657 22.342,-22.343c-2.835,-8.213 -11.513,-12.882 -20.728,-11.152m243.874,0.829c9.033,5.507 6.785,18.406 -3.568,20.476c-2.101,0.42 -2.566,0.217 -3.06,-1.338c-0.598,-1.883 0.046,-2.702 4.398,-5.587c4.334,-2.874 1.294,-9.547 -4.349,-9.547c-5.682,0 -6.828,2.457 -6.828,14.643c0,13.922 -3.445,19.277 -12.4,19.277c-12.559,0 -16.776,-15.86 -5.654,-21.263c6.125,-2.976 8.508,0.896 2.854,4.638c-3.117,2.063 -3.61,3.002 -3.307,6.305c0.389,4.236 7.192,5.773 10.79,2.438c2.086,-1.933 2.117,-2.117 2.117,-12.681c0,-16.408 8.235,-23.93 19.007,-17.361m-231.279,2.08c13.488,10.071 7.83,29.924 -8.528,29.924c-17.23,0 -22.465,-23.817 -6.8,-30.932c3.592,-1.632 12.584,-1.04 15.328,1.008m169.163,1.754c-1.006,1.88 0.877,4.97 3.03,4.97c2.276,0 4.587,-3.013 3.565,-4.647c-1.256,-2.005 -5.581,-2.218 -6.595,-0.323m5.109,1.359c0,1.712 -2.473,2.658 -3.711,1.42c-0.408,-0.408 -0.504,-1.361 -0.213,-2.118c0.741,-1.93 3.924,-1.365 3.924,0.698m-189.007,0.407c-7.645,4.661 -7.746,16.463 -0.178,20.717c6.015,3.38 14.391,1.209 17.079,-4.428c4.052,-8.498 -1.559,-17.879 -10.694,-17.879c-2.184,0 -4.625,0.625 -6.207,1.59m13.379,2.283c6.346,5.337 3.936,16.246 -4.124,18.661c-10.633,3.186 -18.502,-10.233 -10.621,-18.113c4.029,-4.029 10.327,-4.263 14.745,-0.548m27.228,0.921c-2.559,2.559 -1.023,5.6 2.829,5.6c3.565,0 4.388,-4.678 1.129,-6.422c-1.96,-1.049 -2.12,-1.016 -3.958,0.822m4.535,1.262c0.266,0.694 -0.105,1.851 -0.826,2.571c-1.637,1.638 -4.11,-0.257 -3.253,-2.491c0.652,-1.697 3.437,-1.752 4.079,-0.08m78.887,0.538c-3.471,4.486 -0.488,19.8 3.857,19.8c3.43,0 4.279,-5.055 2.65,-15.774c-0.646,-4.245 -4.495,-6.626 -6.507,-4.026m5.405,3.902c1.504,5.584 0.702,13.851 -1.373,14.147c-2.412,0.343 -3.149,-1.484 -3.717,-9.219c-0.668,-9.104 3.008,-12.663 5.09,-4.928m36.773,-0.902c-1.93,1.93 -1.943,2.175 -0.32,6.102c2.438,5.902 6.142,7.735 8.585,4.249c3.25,-4.641 -4.397,-14.219 -8.265,-10.351m-162.667,-0.267c-1.165,1.166 -0.497,5.03 1.009,5.836c3.337,1.786 6.872,-2.102 4.398,-4.836c-1.36,-1.502 -4.351,-2.055 -5.407,-1m140.791,0.93c-2.755,3.044 1.217,17.712 5.132,18.955c3.569,1.133 5.605,-2.952 4.037,-8.099c-0.388,-1.275 -1.172,-3.939 -1.742,-5.919c-1.766,-6.139 -4.621,-8.037 -7.427,-4.937m-136.491,0.577c1.326,1.597 -0.657,3.884 -2.691,3.104c-1.565,-0.601 -1.8,-3.226 -0.342,-3.814c1.639,-0.662 1.956,-0.587 3.033,0.71m164.591,2.833c2.045,4.12 1.692,6.327 -1.012,6.327c-2.171,0 -3.095,-1.041 -4.329,-4.878c-2.07,-6.433 2.28,-7.613 5.341,-1.449m-23.109,-1.832c1.73,3.232 3.94,14.148 3.078,15.198c-2.646,3.221 -7.771,-5.667 -7.788,-13.506c-0.008,-3.386 3.189,-4.534 4.71,-1.692m-117.226,4.561c-0.684,1.781 0.318,4.953 1.736,5.497c2.77,1.063 5.768,-2.496 4.344,-5.157c-1.008,-1.883 -5.394,-2.129 -6.08,-0.34m4.046,0.084c1.672,0.642 1.621,3.206 -0.077,3.858c-1.734,0.665 -3.667,-1.268 -3.002,-3.002c0.557,-1.451 1.121,-1.608 3.079,-0.856m19.84,6.928c-0.976,1.039 -1.775,2.223 -1.775,2.63c0,0.408 -1.23,3.265 -2.733,6.349c-2.923,5.998 -8.7,18.278 -11.655,24.774c-2.825,6.212 0.439,11.169 4.773,7.246c2.456,-2.222 18.562,-37.645 18.271,-40.183c-0.355,-3.089 -4.306,-3.557 -6.881,-0.816m25.219,0.21c-2.441,2.441 -3.768,9.279 -2.174,11.2c3.06,3.687 7.351,-0.031 7.486,-6.487c0.126,-6.026 -2.06,-7.965 -5.312,-4.713m-19.51,-0.038c0.482,1.257 -1.052,6.254 -3.025,9.855c-0.651,1.187 -2.855,5.759 -4.898,10.159c-9.268,19.956 -10.402,21.816 -12.751,20.915c-2.652,-1.018 -2.117,-2.454 13.013,-34.915c3.18,-6.823 6.385,-9.338 7.661,-6.014m23.676,1.508c1.503,3.954 -1.532,10.902 -4.298,9.841c-2.029,-0.779 -1.701,-7.565 0.477,-9.883c2.194,-2.336 2.92,-2.328 3.821,0.042m-61.1,2.839c-1.123,1.241 -1.213,1.861 -0.471,3.247c1.318,2.463 5.899,2.007 6.272,-0.624c0.539,-3.799 -3.205,-5.491 -5.801,-2.623m4.875,2.805c-0.649,1.689 -3.43,1.61 -4.093,-0.117c-0.787,-2.05 1.887,-3.835 3.431,-2.291c0.63,0.63 0.928,1.714 0.662,2.408m146.025,-2.578c-2.223,2.223 -1.06,5.696 8.594,25.64c4.256,8.793 11.664,7.377 8.141,-1.557c-4.2,-10.653 -11.369,-24.076 -13.106,-24.542c-2.428,-0.65 -2.533,-0.637 -3.629,0.459m4.758,2.04c1.114,1.339 2.005,3.113 6.521,13c4.87,10.661 5.416,12.167 4.947,13.644c-1.003,3.161 -4.498,1.423 -6.523,-3.244c-0.477,-1.1 -2.036,-4.52 -3.465,-7.6c-1.428,-3.08 -3.256,-7.04 -4.061,-8.8c-1.382,-3.019 -1.841,-5.103 -1.629,-7.4c0.136,-1.475 2.865,-1.215 4.21,0.4m-52.95,4.065c-2.61,2.113 -1.671,5.735 1.487,5.735c3.983,0 5.5,-3.325 2.682,-5.876c-1.826,-1.653 -1.959,-1.648 -4.169,0.141m3.809,1.032c1.447,1.447 0.24,3.103 -2.263,3.103c-2.433,0 -3.037,-1.357 -1.354,-3.04c1.201,-1.201 2.457,-1.223 3.617,-0.063m-114.999,4.103c-5.012,5.357 -5.797,9.713 -1.926,10.684c2.801,0.704 4.021,0.002 6.314,-3.63c4.075,-6.456 0.472,-12.248 -4.388,-7.054m5.322,0.973c0.916,2.386 -3.1,8.027 -5.716,8.027c-3.333,0 -3.47,-2.428 -0.35,-6.2c2.55,-3.082 5.27,-3.902 6.066,-1.827m80.728,1.472c-1.932,2.949 -4.833,35.089 -3.432,38.023c1.135,2.375 3.87,3.18 5.232,1.539c2.456,-2.958 5.725,-35.212 3.947,-38.935c-1.34,-2.805 -4.121,-3.109 -5.747,-0.627m4.866,8.525c-1.589,25.34 -2.346,29.875 -5.054,30.273c-1.816,0.268 -3.938,-4.022 -2.837,-5.735c0.321,-0.499 0.864,-5.048 1.208,-10.108c1.353,-19.939 1.439,-20.552 3.118,-22.354c3.057,-3.281 4.119,-0.919 3.565,7.924m48.5,0.156c-2.291,2.291 -0.248,5.829 3.08,5.335c2.429,-0.36 3.78,-2.642 2.641,-4.461c-1.076,-1.719 -4.372,-2.223 -5.721,-0.874m4.206,2.274c0,2.281 -2.525,3.247 -3.288,1.259c-0.728,-1.897 0.302,-3.812 1.886,-3.507c0.885,0.17 1.402,0.999 1.402,2.248m-30.881,9.75c-2.316,4.328 0.457,19.85 3.547,19.85c4.979,0 5.838,-17.767 1.014,-20.988c-1.654,-1.105 -3.623,-0.613 -4.561,1.138m5.481,2.016c1.533,3.301 1.334,15.135 -0.265,15.748c-3.225,1.238 -4.335,-1.514 -4.335,-10.752c0,-7.883 2.166,-10.236 4.6,-4.996m-65.116,1.589c-2.321,5.555 -2.315,7.926 0.024,9.458c2.953,1.935 5.498,0.166 6.884,-4.785c2.052,-7.327 -4.069,-11.467 -6.908,-4.673m5.825,-0.006c0.889,3.544 -1.3,8.651 -3.709,8.651c-1.824,0 -1.994,-0.294 -1.936,-3.333c0.114,-5.929 4.463,-10.027 5.645,-5.318" id="path2"/>
  </g>
 </g>
</svg>